<svg id="Camada_1" data-name="Camada 1" xmlns="http://www.w3.org/2000/svg" viewBox="0 0 140 140"><defs><style>.cls-1{fill:#fff;fill-rule:evenodd;}</style></defs><title>caa_on_line</title><path class="cls-1" d="M208.45,296.83H203.5a17.5,17.5,0,0,1-17.5-17.5v-17.5C186,220,217.37,186,256,186s70,34,70,75.83v17.5a17.5,17.5,0,0,1-17.5,17.5h-4.95C287.86,323.86,263.28,326,256,326s-31.86-2.14-47.55-29.17Zm94.22-34.27c-3.51,1.37-7.41-1.05-7.41-4.65a50.32,50.32,0,0,0-.31-5.34c-10.27-1.48-21.1-11.23-21.57-21.72-7.67,11.7-26.4,24.33-41.09,24.33,6.33-4.08,10.72-16.18,11.1-20.47-3.39,6.37-16.91,18.3-26.55,20.35-.05.95-.1,1.9-.1,2.85,0,3.61-3.91,6-7.41,4.65v22a16.6,16.6,0,0,0,6.08,3.47,5.32,5.32,0,0,1,3,2.47c12.86,23.6,31.65,23.84,37.55,23.84,5.42,0,21.69-.2,34.28-18.48-6.25,2.52-13.21,3.52-21.93,3.81-2.15,3.5-6.88,5.92-12.35,5.92-7.51,0-13.61-4.57-13.61-10.2s6.1-10.21,13.61-10.21c5.44,0,10.14,2.39,12.32,5.86,11.08-.15,25.29-1.95,34.35-15.43v-13Zm-64.17-3.64c4,0,7.25,3.92,7.25,8.75s-3.25,8.75-7.25,8.75-7.25-3.92-7.25-8.75,3.25-8.75,7.25-8.75Zm35,0c4,0,7.25,3.92,7.25,8.75s-3.25,8.75-7.25,8.75-7.25-3.92-7.25-8.75,3.25-8.75,7.25-8.75Zm31.95-8.75h7.92c-5-29.86-28.8-52.5-57.37-52.5s-52.38,22.64-57.37,52.5h7.92c3-23.47,19.89-45,49.45-45s46.42,21.58,49.45,45Z" transform="translate(-186 -186)"/></svg>